<?xml version="1.0" encoding="UTF-8" standalone="no"?>
<!DOCTYPE svg PUBLIC "-//W3C//DTD SVG 1.1//EN"
 "http://www.w3.org/Graphics/SVG/1.1/DTD/svg11.dtd">
<!-- Generated by graphviz version 5.0.0 (20220707.1540)
 -->
<!-- Title: dependencies Pages: 1 -->
<svg width="809pt" height="174pt"
 viewBox="0.00 0.00 809.00 173.80" xmlns="http://www.w3.org/2000/svg" xmlns:xlink="http://www.w3.org/1999/xlink">
<g id="graph0" class="graph" transform="scale(1 1) rotate(0) translate(4 169.8)">
<title>dependencies</title>
<polygon fill="white" stroke="transparent" points="-4,4 -4,-169.8 805,-169.8 805,4 -4,4"/>
<text text-anchor="middle" x="400.5" y="-8.2" font-family="sans-serif" font-size="14.00">dependencies</text>
<g id="clust1" class="cluster">
<title>cluster_WaterUsageForecastsModule</title>
<polygon fill="none" stroke="black" stroke-dasharray="1,5" points="8,-32.8 8,-157.8 793,-157.8 793,-32.8 8,-32.8"/>
</g>
<g id="clust2" class="cluster">
<title>cluster_WaterUsageForecastsModule_declarations</title>
<polygon fill="none" stroke="black" points="16,-40.8 16,-92.8 785,-92.8 785,-40.8 16,-40.8"/>
</g>
<!-- ConsumerDetailComponent -->
<g id="node1" class="node">
<title>ConsumerDetailComponent</title>
<polygon fill="#ffffb3" stroke="black" points="776.59,-84.8 603.41,-84.8 603.41,-48.8 776.59,-48.8 776.59,-84.8"/>
<text text-anchor="middle" x="690" y="-62.6" font-family="Times,serif" font-size="14.00">ConsumerDetailComponent</text>
</g>
<!-- WaterUsageForecastsModule -->
<g id="node5" class="node">
<title>WaterUsageForecastsModule</title>
<polygon fill="#8dd3c7" stroke="black" points="494.61,-149.8 491.61,-153.8 470.61,-153.8 467.61,-149.8 313.39,-149.8 313.39,-113.8 494.61,-113.8 494.61,-149.8"/>
<text text-anchor="middle" x="404" y="-127.6" font-family="Times,serif" font-size="14.00">WaterUsageForecastsModule</text>
</g>
<!-- ConsumerDetailComponent&#45;&gt;WaterUsageForecastsModule -->
<g id="edge1" class="edge">
<title>ConsumerDetailComponent&#45;&gt;WaterUsageForecastsModule</title>
<path fill="none" stroke="black" d="M690,-84.91C690,-104.14 690,-131.8 690,-131.8 690,-131.8 504.89,-131.8 504.89,-131.8"/>
<polygon fill="black" stroke="black" points="504.89,-128.3 494.89,-131.8 504.89,-135.3 504.89,-128.3"/>
</g>
<!-- MapSelectViewComponent -->
<g id="node2" class="node">
<title>MapSelectViewComponent</title>
<polygon fill="#ffffb3" stroke="black" points="585.53,-84.8 414.47,-84.8 414.47,-48.8 585.53,-48.8 585.53,-84.8"/>
<text text-anchor="middle" x="500" y="-62.6" font-family="Times,serif" font-size="14.00">MapSelectViewComponent</text>
</g>
<!-- MapSelectViewComponent&#45;&gt;WaterUsageForecastsModule -->
<g id="edge2" class="edge">
<title>MapSelectViewComponent&#45;&gt;WaterUsageForecastsModule</title>
<path fill="none" stroke="black" d="M454.52,-84.91C454.52,-84.91 454.52,-103.79 454.52,-103.79"/>
<polygon fill="black" stroke="black" points="451.02,-103.79 454.52,-113.79 458.02,-103.79 451.02,-103.79"/>
</g>
<!-- ResultDataViewComponent -->
<g id="node3" class="node">
<title>ResultDataViewComponent</title>
<polygon fill="#ffffb3" stroke="black" points="395.86,-84.8 222.14,-84.8 222.14,-48.8 395.86,-48.8 395.86,-84.8"/>
<text text-anchor="middle" x="309" y="-62.6" font-family="Times,serif" font-size="14.00">ResultDataViewComponent</text>
</g>
<!-- ResultDataViewComponent&#45;&gt;WaterUsageForecastsModule -->
<g id="edge3" class="edge">
<title>ResultDataViewComponent&#45;&gt;WaterUsageForecastsModule</title>
<path fill="none" stroke="black" d="M354.56,-84.91C354.56,-84.91 354.56,-103.79 354.56,-103.79"/>
<polygon fill="black" stroke="black" points="351.06,-103.79 354.56,-113.79 358.06,-103.79 351.06,-103.79"/>
</g>
<!-- WaterRightDetailComponent -->
<g id="node4" class="node">
<title>WaterRightDetailComponent</title>
<polygon fill="#ffffb3" stroke="black" points="204.35,-84.8 23.65,-84.8 23.65,-48.8 204.35,-48.8 204.35,-84.8"/>
<text text-anchor="middle" x="114" y="-62.6" font-family="Times,serif" font-size="14.00">WaterRightDetailComponent</text>
</g>
<!-- WaterRightDetailComponent&#45;&gt;WaterUsageForecastsModule -->
<g id="edge4" class="edge">
<title>WaterRightDetailComponent&#45;&gt;WaterUsageForecastsModule</title>
<path fill="none" stroke="black" d="M114,-84.91C114,-104.14 114,-131.8 114,-131.8 114,-131.8 303.04,-131.8 303.04,-131.8"/>
<polygon fill="black" stroke="black" points="303.04,-135.3 313.04,-131.8 303.04,-128.3 303.04,-135.3"/>
</g>
</g>
</svg>
