<?xml version="1.0" encoding="UTF-8" standalone="no"?>
<!DOCTYPE svg PUBLIC "-//W3C//DTD SVG 1.1//EN"
 "http://www.w3.org/Graphics/SVG/1.1/DTD/svg11.dtd">
<!-- Generated by graphviz version 2.47.3 (20210619.1520)
 -->
<!-- Title: dependencies Pages: 1 -->
<svg width="642pt" height="247pt"
 viewBox="0.00 0.00 642.00 246.80" xmlns="http://www.w3.org/2000/svg" xmlns:xlink="http://www.w3.org/1999/xlink">
<g id="graph0" class="graph" transform="scale(1 1) rotate(0) translate(4 242.8)">
<title>dependencies</title>
<polygon fill="white" stroke="transparent" points="-4,4 -4,-242.8 638,-242.8 638,4 -4,4"/>
<text text-anchor="middle" x="317" y="-8.2" font-family="sans-serif" font-size="14.00">dependencies</text>
<g id="clust1" class="cluster">
<title>cluster_WaterUsageForecastsModule</title>
<polygon fill="none" stroke="black" stroke-dasharray="1,5" points="8,-32.8 8,-230.8 626,-230.8 626,-32.8 8,-32.8"/>
</g>
<g id="clust2" class="cluster">
<title>cluster_WaterUsageForecastsModule_declarations</title>
<polygon fill="none" stroke="black" points="16,-40.8 16,-92.8 618,-92.8 618,-40.8 16,-40.8"/>
</g>
<g id="clust7" class="cluster">
<title>cluster_WaterUsageForecastsModule_exports</title>
<polygon fill="none" stroke="black" points="222,-170.8 222,-222.8 444,-222.8 444,-170.8 222,-170.8"/>
</g>
<!-- MapSelectViewComponent -->
<g id="node1" class="node">
<title>MapSelectViewComponent</title>
<polygon fill="#ffffb3" stroke="black" points="609.52,-84.8 438.48,-84.8 438.48,-48.8 609.52,-48.8 609.52,-84.8"/>
<text text-anchor="middle" x="524" y="-62.6" font-family="Times,serif" font-size="14.00">MapSelectViewComponent</text>
</g>
<!-- WaterUsageForecastsModule -->
<g id="node4" class="node">
<title>WaterUsageForecastsModule</title>
<polygon fill="#8dd3c7" stroke="black" points="423.59,-149.8 420.59,-153.8 399.59,-153.8 396.59,-149.8 242.41,-149.8 242.41,-113.8 423.59,-113.8 423.59,-149.8"/>
<text text-anchor="middle" x="333" y="-127.6" font-family="Times,serif" font-size="14.00">WaterUsageForecastsModule</text>
</g>
<!-- MapSelectViewComponent&#45;&gt;WaterUsageForecastsModule -->
<g id="edge1" class="edge">
<title>MapSelectViewComponent&#45;&gt;WaterUsageForecastsModule</title>
<path fill="none" stroke="black" d="M524,-84.91C524,-104.14 524,-131.8 524,-131.8 524,-131.8 433.75,-131.8 433.75,-131.8"/>
<polygon fill="black" stroke="black" points="433.75,-128.3 423.75,-131.8 433.75,-135.3 433.75,-128.3"/>
</g>
<!-- ResultDataViewComponent -->
<g id="node2" class="node">
<title>ResultDataViewComponent</title>
<polygon fill="#ffffb3" stroke="black" points="419.85,-84.8 246.15,-84.8 246.15,-48.8 419.85,-48.8 419.85,-84.8"/>
<text text-anchor="middle" x="333" y="-62.6" font-family="Times,serif" font-size="14.00">ResultDataViewComponent</text>
</g>
<!-- ResultDataViewComponent&#45;&gt;WaterUsageForecastsModule -->
<g id="edge2" class="edge">
<title>ResultDataViewComponent&#45;&gt;WaterUsageForecastsModule</title>
<path fill="none" stroke="black" d="M333,-84.91C333,-84.91 333,-103.79 333,-103.79"/>
<polygon fill="black" stroke="black" points="329.5,-103.79 333,-113.79 336.5,-103.79 329.5,-103.79"/>
</g>
<!-- WaterUsageForecastsComponent -->
<g id="node3" class="node">
<title>WaterUsageForecastsComponent</title>
<polygon fill="#ffffb3" stroke="black" points="227.87,-84.8 24.13,-84.8 24.13,-48.8 227.87,-48.8 227.87,-84.8"/>
<text text-anchor="middle" x="126" y="-62.6" font-family="Times,serif" font-size="14.00">WaterUsageForecastsComponent</text>
</g>
<!-- WaterUsageForecastsComponent&#45;&gt;WaterUsageForecastsModule -->
<g id="edge3" class="edge">
<title>WaterUsageForecastsComponent&#45;&gt;WaterUsageForecastsModule</title>
<path fill="none" stroke="black" d="M126,-84.91C126,-104.14 126,-131.8 126,-131.8 126,-131.8 232.21,-131.8 232.21,-131.8"/>
<polygon fill="black" stroke="black" points="232.21,-135.3 242.21,-131.8 232.21,-128.3 232.21,-135.3"/>
</g>
<!-- WaterUsageForecastsComponent  -->
<g id="node5" class="node">
<title>WaterUsageForecastsComponent </title>
<polygon fill="#fb8072" stroke="black" points="436.37,-214.8 229.63,-214.8 229.63,-178.8 436.37,-178.8 436.37,-214.8"/>
<text text-anchor="middle" x="333" y="-192.6" font-family="Times,serif" font-size="14.00">WaterUsageForecastsComponent </text>
</g>
<!-- WaterUsageForecastsModule&#45;&gt;WaterUsageForecastsComponent  -->
<g id="edge4" class="edge">
<title>WaterUsageForecastsModule&#45;&gt;WaterUsageForecastsComponent </title>
<path fill="none" stroke="black" stroke-dasharray="5,2" d="M333,-149.91C333,-149.91 333,-168.79 333,-168.79"/>
<polygon fill="black" stroke="black" points="329.5,-168.79 333,-178.79 336.5,-168.79 329.5,-168.79"/>
</g>
</g>
</svg>
